<?xml version="1.0" encoding="UTF-8" standalone="no"?>
<!-- Created with Inkscape (http://www.inkscape.org/) -->

<svg
   width="12.249717mm"
   height="3.5974929mm"
   viewBox="0 0 12.249717 3.5974929"
   version="1.1"
   id="svg5"
   inkscape:version="1.2.2 (b0a8486541, 2022-12-01)"
   sodipodi:docname="papiee_tentative.svg"
   xmlns:inkscape="http://www.inkscape.org/namespaces/inkscape"
   xmlns:sodipodi="http://sodipodi.sourceforge.net/DTD/sodipodi-0.dtd"
   xmlns="http://www.w3.org/2000/svg"
   xmlns:svg="http://www.w3.org/2000/svg">
  <sodipodi:namedview
     id="namedview7"
     pagecolor="#ffffff"
     bordercolor="#000000"
     borderopacity="0.25"
     inkscape:showpageshadow="2"
     inkscape:pageopacity="0.0"
     inkscape:pagecheckerboard="0"
     inkscape:deskcolor="#d1d1d1"
     inkscape:document-units="mm"
     showgrid="false"
     inkscape:zoom="11.887542"
     inkscape:cx="20.567751"
     inkscape:cy="-4.0378406"
     inkscape:window-width="1920"
     inkscape:window-height="1043"
     inkscape:window-x="0"
     inkscape:window-y="0"
     inkscape:window-maximized="1"
     inkscape:current-layer="layer1" />
  <defs
     id="defs2" />
  <g
     inkscape:label="Calque 1"
     inkscape:groupmode="layer"
     id="layer1"
     transform="translate(-83.617981,-72.552292)">
    <path
       d="m 85.271657,72.96885 q 0.20567,0 0.380295,0.112536 0.174626,0.108656 0.27552,0.298803 0.104775,0.190148 0.104775,0.419101 0,0.228953 -0.104775,0.422981 -0.100894,0.194028 -0.27552,0.306564 -0.174625,0.112536 -0.380295,0.112536 h -0.729545 v 0.857604 q 0,0.07761 -0.05045,0.131939 -0.05045,0.05433 -0.128059,0.05433 -0.08149,0 -0.131939,-0.05045 -0.04657,-0.05433 -0.04657,-0.135819 v -2.343858 q 0,-0.07761 0.05433,-0.131939 0.05433,-0.05433 0.131939,-0.05433 z m 0,1.31939 q 0.104776,0 0.194028,-0.06597 0.08925,-0.06985 0.139701,-0.182387 0.05433,-0.112536 0.05433,-0.240594 0,-0.197909 -0.116416,-0.333729 -0.112537,-0.1397 -0.27164,-0.1397 h -0.729545 v 0.962379 z"
       style="font-size:3.88056px;font-family:'Quicksand Medium';-inkscape-font-specification:'Quicksand Medium, ';stroke:#000000;stroke-width:0"
       id="path4445" />
    <path
       d="m 86.25065,73.88365 q -0.0085,-0.0254 -0.0085,-0.05362 0,-0.05644 0.03951,-0.09313 0.03669,-0.03669 0.08749,-0.03669 0.03951,0 0.07338,0.02258 0.03104,0.0254 0.0508,0.06773 l 0.175008,0.414863 h 0.872066 l 0.172156,-0.417689 q 0.01411,-0.04233 0.04798,-0.06491 0.03104,-0.02258 0.07056,-0.02258 0.05927,0 0.09031,0.03104 0.03104,0.03104 0.03104,0.08467 0,0.01129 -0.0056,0.04515 l -0.719666,1.744132 q -0.01976,0.04516 -0.05362,0.06773 -0.03669,0.0254 -0.08185,0.01976 -0.04233,0 -0.0762,-0.02258 -0.03387,-0.02258 -0.04798,-0.06491 z m 1.18251,0.578555 h -0.657577 l 0.330199,0.790222 z"
       style="font-size:2.82222px;font-family:'Quicksand Medium';-inkscape-font-specification:'Quicksand Medium, ';fill:#f6530d;fill-opacity:1;stroke:none;stroke-width:0.01;stroke-dasharray:none"
       id="path4447" />
    <path
       d="m 89.180903,73.709178 q 0.149577,0 0.242678,0.08184 0.09427,0.07902 0.110365,0.217311 0.01892,0.138289 -0.05005,0.3048 -0.06897,0.166511 -0.203621,0.307622 -0.13183,0.141111 -0.292729,0.222955 -0.160899,0.08184 -0.310476,0.08184 h -0.530578 l -0.258349,0.623711 q -0.02338,0.05644 -0.07644,0.09596 -0.05306,0.03951 -0.109496,0.03951 -0.05927,0 -0.08076,-0.03669 -0.0175,-0.03951 0.007,-0.09878 l 0.706077,-1.704621 q 0.02338,-0.05644 0.07925,-0.09595 0.05588,-0.03951 0.112326,-0.03951 z m -0.39746,0.959554 q 0.0762,0 0.160985,-0.04798 0.08595,-0.0508 0.156543,-0.132645 0.07341,-0.08184 0.111988,-0.174977 0.05962,-0.143933 0.01586,-0.242711 -0.03976,-0.1016 -0.155471,-0.1016 H 88.54277 l -0.289912,0.69991 z"
       style="font-size:2.82222px;font-family:'Quicksand Medium';-inkscape-font-specification:'Quicksand Medium, ';stroke:#000000;stroke-width:0"
       id="path4449" />
    <path
       d="m 90.303843,75.549775 q -0.02117,0 -0.04657,-0.0127 -0.24765,-0.148167 -0.381,-0.3937 -0.133351,-0.247651 -0.133351,-0.533401 0,-0.285751 0.133351,-0.527051 0.13335,-0.243417 0.383117,-0.400051 0.02117,-0.01482 0.04445,-0.01482 0.0381,0 0.06138,0.02963 0.02328,0.02752 0.02328,0.05927 0,0.04022 -0.03598,0.06985 -0.19685,0.135467 -0.302683,0.342901 -0.103717,0.207433 -0.103717,0.440267 0,0.239184 0.103717,0.448734 0.103716,0.20955 0.302683,0.334434 0.03598,0.0254 0.03598,0.06985 0,0.03175 -0.0254,0.05927 -0.02328,0.02752 -0.05927,0.02752 z"
       style="font-size:2.11667px;-inkscape-font-specification:sans-serif;stroke:#000000;stroke-width:0"
       id="path4451" />
    <path
       d="m 91.416344,73.491317 q 0,0.02223 -0.0032,0.03493 -0.01587,0.0762 -0.07303,0.123825 -0.0635,0.0508 -0.136525,0.0508 -0.07303,0 -0.1143,-0.0508 -0.03175,-0.03493 -0.03175,-0.0889 0,-0.02222 0.0032,-0.03493 0.01587,-0.0762 0.0762,-0.123825 0.06033,-0.05397 0.13335,-0.05397 0.06985,0 0.1143,0.05397 0.03175,0.03493 0.03175,0.0889 z m -0.09207,0.5461 -0.288925,1.482725 h 0.269875 l -0.03175,0.1651 h -0.55245 l 0.28575,-1.482725 h -0.27305 l 0.03493,-0.1651 z"
       style="font-size:3.175px;font-family:'Quicksand Medium';-inkscape-font-specification:'Quicksand Medium, ';fill:#f6530d;fill-opacity:1;stroke:none;stroke-width:0.01;stroke-dasharray:none"
       id="path4453" />
    <path
       d="m 91.832512,75.549775 q -0.03598,0 -0.06138,-0.02963 -0.02328,-0.02752 -0.02328,-0.05927 0,-0.04233 0.03598,-0.06985 0.19685,-0.135467 0.300567,-0.3429 0.105834,-0.207434 0.105834,-0.440268 0,-0.237067 -0.103717,-0.446617 -0.103717,-0.20955 -0.302684,-0.336551 -0.01693,-0.01058 -0.02752,-0.02963 -0.0085,-0.01905 -0.0085,-0.0381 0,-0.03387 0.02328,-0.06138 0.0254,-0.02752 0.06138,-0.02752 0.02328,0 0.04657,0.01482 0.247651,0.148167 0.381001,0.393701 0.13335,0.245534 0.13335,0.531284 0,0.283634 -0.135467,0.527051 -0.13335,0.243417 -0.381,0.400051 -0.02117,0.01482 -0.04445,0.01482 z"
       style="font-size:2.11667px;-inkscape-font-specification:sans-serif;stroke:#000000;stroke-width:0"
       id="path4455" />
    <path
       d="m 93.792656,75.425597 q 0.05927,0 0.09596,0.03951 0.03951,0.03951 0.03951,0.09313 0,0.05644 -0.03951,0.09313 -0.03669,0.03387 -0.09596,0.03387 h -0.982133 q -0.05644,0 -0.09596,-0.03951 -0.03951,-0.03951 -0.03951,-0.09596 v -1.704621 q 0,-0.05644 0.03951,-0.09595 0.03951,-0.03951 0.09596,-0.03951 h 0.982133 q 0.05927,0 0.09596,0.03669 0.03951,0.03669 0.03951,0.09596 0,0.05644 -0.03951,0.09313 -0.03669,0.03387 -0.09596,0.03387 h -0.8382 v 0.575733 h 0.7112 q 0.05927,0 0.09596,0.03669 0.03951,0.03669 0.03951,0.09313 0,0.05927 -0.03951,0.09313 -0.03669,0.03387 -0.09596,0.03387 h -0.7112 v 0.62371 z m -0.471311,-1.83162 q -0.04233,0 -0.06773,-0.01976 -0.02258,-0.02258 -0.02258,-0.05927 0,-0.03669 0.03387,-0.06491 l 0.248356,-0.208844 q 0.05927,-0.04798 0.112889,-0.04798 0.04798,0 0.08467,0.03387 0.03951,0.03387 0.03951,0.08184 0,0.03669 -0.02258,0.07056 -0.02258,0.03387 -0.06209,0.05362 l -0.2794,0.143933 q -0.03387,0.01693 -0.06491,0.01693 z"
       style="font-size:2.82222px;font-family:'Quicksand Medium';-inkscape-font-specification:'Quicksand Medium, ';stroke:#000000;stroke-width:0"
       id="path4457" />
    <path
       d="m 94.419197,75.425597 q -0.05927,0 -0.09596,0.03951 -0.03951,0.03951 -0.03951,0.09313 0,0.05644 0.03951,0.09313 0.03669,0.03387 0.09596,0.03387 h 0.982133 q 0.05644,0 0.09595,-0.03951 0.03951,-0.03951 0.03951,-0.09596 v -1.704621 q 0,-0.05644 -0.03951,-0.09595 -0.03951,-0.03951 -0.09595,-0.03951 h -0.982133 q -0.05927,0 -0.09596,0.03669 -0.03951,0.03669 -0.03951,0.09596 0,0.05644 0.03951,0.09313 0.03669,0.03387 0.09596,0.03387 h 0.838199 v 0.575733 h -0.711199 q -0.05927,0 -0.09596,0.03669 -0.03951,0.03669 -0.03951,0.09313 0,0.05927 0.03951,0.09313 0.03669,0.03387 0.09596,0.03387 h 0.711199 v 0.62371 z"
       style="font-size:2.82222px;font-family:'Quicksand Medium';-inkscape-font-specification:'Quicksand Medium, ';fill:#f6530d;fill-opacity:1;stroke:none;stroke-width:0.01;stroke-dasharray:none"
       id="path4459" />
  </g>
</svg>
