<?xml version="1.0" encoding="UTF-8" standalone="no"?>
<!-- Created with Inkscape (http://www.inkscape.org/) -->

<svg
   width="1.8603001mm"
   height="2.1432889mm"
   viewBox="0 0 1.8603001 2.1432889"
   version="1.1"
   id="svg5456"
   inkscape:version="1.2.2 (b0a8486541, 2022-12-01)"
   sodipodi:docname="papiee_favicon.svg"
   xmlns:inkscape="http://www.inkscape.org/namespaces/inkscape"
   xmlns:sodipodi="http://sodipodi.sourceforge.net/DTD/sodipodi-0.dtd"
   xmlns="http://www.w3.org/2000/svg"
   xmlns:svg="http://www.w3.org/2000/svg">
  <sodipodi:namedview
     id="namedview5458"
     pagecolor="#ffffff"
     bordercolor="#000000"
     borderopacity="0.25"
     inkscape:showpageshadow="2"
     inkscape:pageopacity="0.0"
     inkscape:pagecheckerboard="0"
     inkscape:deskcolor="#d1d1d1"
     inkscape:document-units="mm"
     showgrid="false"
     inkscape:zoom="14.638496"
     inkscape:cx="4.5769729"
     inkscape:cy="-8.8806937"
     inkscape:window-width="1920"
     inkscape:window-height="1043"
     inkscape:window-x="0"
     inkscape:window-y="0"
     inkscape:window-maximized="1"
     inkscape:current-layer="layer1" />
  <defs
     id="defs5453" />
  <g
     inkscape:label="Calque 1"
     inkscape:groupmode="layer"
     id="layer1"
     transform="translate(-56.619022,-102.74813)">
    <path
       d="m 56.702522,103.00656 q -0.0085,-0.0254 -0.0085,-0.0536 0,-0.0564 0.03951,-0.0931 0.03669,-0.0367 0.08749,-0.0367 0.03951,0 0.07338,0.0226 0.03104,0.0254 0.0508,0.0677 l 0.175008,0.41486 h 0.872066 l 0.172156,-0.41769 q 0.01411,-0.0423 0.04798,-0.0649 0.03104,-0.0226 0.07056,-0.0226 0.05927,0 0.09031,0.031 0.03104,0.031 0.03104,0.0847 0,0.0113 -0.0056,0.0451 l -0.719666,1.74413 q -0.01976,0.0452 -0.05362,0.0677 -0.03669,0.0254 -0.08185,0.0198 -0.04233,0 -0.0762,-0.0226 -0.03387,-0.0226 -0.04798,-0.0649 z m 1.18251,0.57855 h -0.657577 l 0.330199,0.79022 z"
       style="font-size:2.82222px;font-family:'Quicksand Medium';-inkscape-font-specification:'Quicksand Medium, ';fill:#ffffff;fill-opacity:1;stroke:#f6530d;stroke-width:0.15;stroke-dasharray:none;stroke-opacity:1"
       id="path4447" />
  </g>
</svg>
